<svg width="303" height="124" viewBox="0 0 303 124" fill="none" xmlns="http://www.w3.org/2000/svg">
<path d="M64.7003 5.6086C68.9546 2.51539 73.388 0.606208 74.5723 0.122153C74.6431 0.0932188 74.6156 0 74.5372 0H14.5394C6.50951 0 0 5.58012 0 12.4636V111.237C0 118.121 6.50951 123.701 14.5394 123.701H45.4356C53.4655 123.701 59.975 118.121 59.975 111.237V17.7606C59.975 17.7606 59.6112 9.30875 64.7003 5.6086Z" fill="url(#paint0_linear_30_53)"/>
<path d="M141.889 100.139H71.7539V24.8122H141.889C148.737 24.8122 154.849 25.4749 160.224 26.8003C165.599 28.1257 170.164 30.2242 173.92 33.0959C177.749 35.9676 180.62 39.7965 182.535 44.5827C184.523 49.3688 185.517 55.2962 185.517 62.365C185.517 69.5074 184.523 75.5085 182.535 80.3682C180.547 85.228 177.675 89.1306 173.92 92.0759C170.164 94.9476 165.599 97.0093 160.224 98.261C154.849 99.5128 148.737 100.139 141.889 100.139ZM89.4258 39.9438V85.0071H140.233C146.712 85.0071 151.94 84.3076 155.916 82.9086C159.893 81.5096 162.764 79.1533 164.531 75.8398C166.299 72.5263 167.182 68.0347 167.182 62.365C167.182 56.6953 166.299 52.2405 164.531 49.0006C162.764 45.7608 159.893 43.4413 155.916 42.0423C151.94 40.6433 146.712 39.9438 140.233 39.9438H89.4258Z" fill="url(#paint1_linear_30_53)"/>
<path d="M285.003 60.5978V24.8122H302.675V64.1322C302.675 72.8209 300.503 79.8896 296.159 85.3385C291.888 90.7873 285.74 94.8371 277.714 97.4879C269.761 100.065 260.299 101.354 249.328 101.354C238.43 101.354 228.969 100.065 220.943 97.4879C212.99 94.8371 206.842 90.7873 202.498 85.3385C198.227 79.8896 196.091 72.8209 196.091 64.1322V24.8122H213.763V60.5978C213.763 66.6357 215.015 71.5323 217.519 75.2876C220.096 79.0429 223.998 81.8041 229.226 83.5713C234.528 85.3385 241.228 86.2221 249.328 86.2221C257.575 86.2221 264.312 85.3385 269.54 83.5713C274.768 81.8041 278.634 79.0429 281.137 75.2876C283.715 71.5323 285.003 66.6357 285.003 60.5978Z" fill="url(#paint2_linear_30_53)"/>
<path d="M38.4691 100.35H20.7972V25.0239H38.4691V100.35Z" fill="white"/>
<defs>
<linearGradient id="paint0_linear_30_53" x1="151.474" y1="-21.6497" x2="151.474" y2="139.85" gradientUnits="userSpaceOnUse">
<stop stop-color="#46024F"/>
<stop offset="1" stop-color="#0145B3"/>
</linearGradient>
<linearGradient id="paint1_linear_30_53" x1="151.474" y1="-21.6497" x2="151.474" y2="139.85" gradientUnits="userSpaceOnUse">
<stop stop-color="#46024F"/>
<stop offset="1" stop-color="#0145B3"/>
</linearGradient>
<linearGradient id="paint2_linear_30_53" x1="151.474" y1="-21.6497" x2="151.474" y2="139.85" gradientUnits="userSpaceOnUse">
<stop stop-color="#46024F"/>
<stop offset="1" stop-color="#0145B3"/>
</linearGradient>
</defs>
</svg>
